<?xml version="1.0" encoding="utf-8"?>
<!-- Svg Vector Icons : http://www.onlinewebfonts.com/icon -->
<!DOCTYPE svg PUBLIC "-//W3C//DTD SVG 1.1//EN" "http://www.w3.org/Graphics/SVG/1.1/DTD/svg11.dtd">
<svg version="1.1" xmlns="http://www.w3.org/2000/svg" xmlns:xlink="http://www.w3.org/1999/xlink" x="0px" y="0px" viewBox="0 0 256 256" enable-background="new 0 0 256 256" xml:space="preserve">
<metadata> Svg Vector Icons : http://www.onlinewebfonts.com/icon </metadata>
<g><g><g><g><path fill="#000000" d="M119.6,184.3v-3.8c0,0-0.1,0-0.1,0L119.6,184.3z"/><path fill="#000000" d="M74.4,136.2c0.2,13.9,2.8,30.8,8.1,36.1c6,6,25.8,7.9,36.1,8.1c-0.3-13.2-2.5-30.5-8.1-36.1C104.5,138.3,85.4,136.4,74.4,136.2z"/><path fill="#000000" d="M128,75.9c-7.2,7.4-19.8,22.7-19.8,31.3c0,7.5,10.1,21.3,19.8,31.3c9.6-10,19.8-23.8,19.8-31.3S137.7,85.9,128,75.9z"/><path fill="#000000" d="M128,10C62.9,10,10,62.9,10,128c0,65.1,52.9,118,118,118c65.1,0,118-52.9,118-118C246,62.9,193.1,10,128,10z M124.4,186.1c-1.3,1.3-3,2-4.8,2l0,0h-0.1c-5.4,0-32.8-0.8-42.4-10.4c-9.3-9.3-10.3-34.7-10.4-42.3c0-1.8,0.7-3.6,2-4.9c1.2-1.2,3-2,4.8-2c7.6,0.1,33,1.1,42.3,10.4c8.7,8.7,10.1,31.2,10.4,41c0.1,0.4,0.1,0.9,0.1,1.4C126.4,183.1,125.7,184.8,124.4,186.1z M123.2,144.4c-5.3-5.4-22.6-24.1-22.6-37.3c0-13.6,18.8-33.4,22.6-37.3c2.5-2.5,7.2-2.5,9.7,0c5.3,5.4,22.6,24.1,22.6,37.3s-17.3,31.8-22.6,37.3c-1.3,1.3-3,2-4.8,2C126.2,146.4,124.5,145.7,123.2,144.4z M178.8,177.7c-9.3,9.3-34.7,10.3-42.3,10.4h0h0c-1.8,0-3.5-0.7-4.8-2c-1.3-1.3-2-3-2-4.8c0-5.4,0.7-32.7,10.4-42.3c9.3-9.3,34.7-10.3,42.3-10.4c1.8,0,3.6,0.7,4.8,2c1.3,1.3,2,3,2,4.8C189.2,140.8,188.4,168.1,178.8,177.7z"/><path fill="#000000" d="M137.3,180.5c11-0.2,30.1-2.1,36.1-8.1c6-6,7.9-25.8,8.1-36.1c-11,0.2-30.1,2.1-36.1,8.1C139.4,150.4,137.5,170.1,137.3,180.5z"/></g></g><g></g><g></g><g></g><g></g><g></g><g></g><g></g><g></g><g></g><g></g><g></g><g></g><g></g><g></g><g></g></g></g>
</svg>